<svg xmlns:cc="http://creativecommons.org/ns#" 
    xmlns:rdf="http://www.w3.org/1999/02/22-rdf-syntax-ns#" 
    xmlns="http://www.w3.org/2000/svg">
    <metadata>
        <rdf:RDF>
            <cc:Work>
                <cc:license rdf:resource="http://creativecommons.org/licenses/by-sa/4.0/"/>
                <cc:Agent>Hugh Spiller (@y6nH)</cc:Agent>
            </cc:Work>
        </rdf:RDF>
    </metadata>
    <defs>
        <symbol id="post" viewBox="0 0 128 128" stroke-linecap="round" stroke-linejoin="round">
            <path d="M16 2h84c8 0 12 6 12.5 12.5l6 60c0 6 2 12.5-6 12.5h-14c0 16-22 32-82 32 12.5 0 48-8 48-32H22c-12 0-12-6-12.5-12.5l-6.25-64C0 6 5 2 14 2z"/>
        </symbol>
        <symbol id="local" viewBox="0 0 128 128" stroke-linecap="round" stroke-linejoin="round">
            <g class="house3">
                <path d="M20 72v-60h78v16" class="house-outline"/>
                <path d="M36 36h40v-10h-40z" class="house-window"/>
                <path d="M36 60h40v-10h-40z" class="house-window"/>
            </g>
            <g class="house2">
                <path d="M76 116v-96l46 16v80z" class="house-outline"/>
                <path d="M88 48h18v18H88v-18.75z" class="house-window"/>
                <path d="M88 80h18v18H88V80z" class="house-window"/>
            </g>
            <g class="house1">
                <path d="M4 127v-46.88l31.25-15.62c10.5 5.25 31 15.38 31 15.38l.25 47.12z" class="house-outline"/>
                <path d="M16 88h25v18.75h-25v-18.75z" class="house-window"/>
            </g>            
        </symbol>
        <symbol id="home" viewBox="0 0 128 128" stroke-linecap="round" stroke-linejoin="round">
            <path d="M4 124v-80l60-40 60 40v80z" class="house-outline"/>
            <path d="M16 52v20h38v-20z" class="house-window"/>
            <path d="M16 88v20h38v-20z" class="house-window"/>
            <path d="M72 52v20h38v-20z" class="house-window"/>
            <path d="M72 88v20h38v-20z" class="house-window"/>
        </symbol>
        <symbol id="global" viewBox="0 0 128 128" stroke-linecap="round" stroke-linejoin="round">
            <path d="M84 92c-.15 11.37-2.6 23.58-12.5 30.61m2.56-92.92c17.45 2.77 37.15 10.52 46.88 26.12m-90.06 11.19c-6.9 6.39-15.08 12.75-25 12.5m0 2.56c11.15 18.22 29.23 32.45 49.83 38.14 4.16 1.24 8.4 1.86 12.67 2.67m-9.38-117.74c6.28 7.6 12.26 15 15.63 24.37 9-4.12 17.74-7.73 27.54-9.38m-11.92 95.76c2.9-8.85-2.26-16.3-6.25-23.88 15.36.22 28.58-9.66 37.01-21.88m-90.13-3.12c-10.65 0-18.17-10.36-25-18.75m25 18.75c13.49 15.2 33.9 21.04 53.12 25 1.7-19.66 1.96-40.51-7.27-58.54-2.17-7.98-10.22 1.17-14.96 2.76a96.55 96.55 0 0 0-30.9 30.78zm90.62-3.13c1.46 38.5-40.6 69.46-76.92 56.73-37.2-10-54.4-59.3-31.46-90.25 20.54-32.6 72.73-34.44 95.52-3.38a59.45 59.45 0 0 1 12.86 36.9z" class="globe"/>
            <circle r="8" cy="30" cx="76" class="globe-node"/>
            <circle r="8" cy="90" cx="85" class="globe-node"/>
            <circle r="8" cy="68" cx="30" class="globe-node"/>
        </symbol> 
        <symbol id="exit" viewBox="0 0 128 128" stroke-linejoin="round">
            <path d="M80 4h-60c-9.38 0-15.63 6.25-15.63 15.62v87.5c0 9.38 6.25 15.63 15.63 15.63h59.37V92.19h-15.62v9.38h-40.63V23h40.63v9.37h15.62z" class="exit-door"/>
            <path d="M40 50h53.13v-25l28.12 37.5-28.12 37.5v-25h-56.25z" class="exit-arrow"/>
        </symbol>
        <symbol id="settings" viewBox="0 0 128 128" stroke-linecap="round" stroke-linejoin="round">
            <path d="M52 16l3.13-12.5h18.75l3.12 12.5" class="gear-tooth"/>
            <path d="M20 44l-7.82-10.24 11.69-14.66 11.72 5.35" class="gear-tooth"/>
            <path d="M22 86l-12.88-.26-4.17-18.28 11.49-5.83" class="gear-tooth"/>
            <path d="M56 112l-8.24 9.9-16.9-8.13 2.61-12.62" class="gear-tooth"/>
            <path d="M96 100l2.6 12.62-16.88 8.14-8.24-9.9" class="gear-tooth"/>
            <path d="M112 60l11.5 5.83-4.18 18.28-12.88.27" class="gear-tooth"/>
            <path d="M92 24l11.72-5.35 11.7 14.66-7.83 10.23" class="gear-tooth"/>
            <circle r="46.88" cy="63" cx="64" class="gear-outer-circle"/>
            <circle r="31.25" cy="63" cx="64" class="gear-inner-circle"/>
        </symbol>
        <symbol id="search" viewBox="0 0 128 128" stroke-linecap="round" stroke-linejoin="round">
            <path d="M74 94l25 32c11 0 16-4 16-16l-28-26" class="magnifier-handle"/>
            <path d="M100 52a46.88 46.88 0 0 1-46.88 46.88 46.88 46.88 0 0 1-46.88-46.88 46.88 46.88 0 0 1 46.88-46.87 46.88 46.88 0 0 1 46.87 46.87z" class="magnifier-frame"/>
            <circle r="32" cy="52" cx="54" class="magnifier-lens"/>
        </symbol>
        <symbol id="fave" viewBox="0 0 128 128">
            <path d="M63.07 6.25c2.24 0 12.88 40.96 14.7 42.28 1.8 1.31 44.05-1.22 44.74.91.7 2.13-34.97 24.91-35.66 27.04-.7 2.13 14.77 41.52 12.96 42.84-1.82 1.31-34.5-25.57-36.74-25.57-2.24 0-34.93 26.88-36.74 25.57C24.53 118 39.98 78.6 39.3 76.48 38.6 74.35 2.94 51.57 3.63 49.44c.69-2.13 42.93.4 44.74-.91 1.81-1.32 12.46-42.28 14.7-42.28z"/>
        </symbol>
        <symbol id="boost" viewBox="0 0 128 128">
            <path d="M66.2 68.75l-9.38-9.37c-40.63 6.25-34.58 38.78-50 59.37 22.36-14.14 53.12-9.37 59.37-50z" class="rocket-flame"/>
            <path d="M59.94 43.75L28.7 50s21.88-43.75 34.38-9.37z" class="rocket-fin"/>
            <path d="M81.82 65.63l-6.25 31.25S119.32 75 84.94 62.5z" class="rocket-fin"/>
            <path d="M53.7 59.38C75.56 6.25 119.31 6.25 119.31 6.25s0 43.75-53.13 65.63" class="rocket-body"/>
        </symbol>
    </defs>
</svg>