<?xml version="1.0" encoding="UTF-8" standalone="no"?>
<svg
   xmlns:dc="http://purl.org/dc/elements/1.1/"
   xmlns:cc="http://creativecommons.org/ns#"
   xmlns:rdf="http://www.w3.org/1999/02/22-rdf-syntax-ns#"
   xmlns:svg="http://www.w3.org/2000/svg"
   xmlns="http://www.w3.org/2000/svg"
   xmlns:sodipodi="http://sodipodi.sourceforge.net/DTD/sodipodi-0.dtd"
   xmlns:inkscape="http://www.inkscape.org/namespaces/inkscape"
   width="398.07373"
   height="40.090069"
   viewBox="0 0 1243.9811 125.28154"
   version="1.1"
   id="svg3734"
   sodipodi:docname="rustodon-icons.svg"
   inkscape:version="0.92.3 (2405546, 2018-03-11)">
  <metadata
     id="metadata3740">
    <rdf:RDF>
      <cc:Work
         rdf:about="">
        <dc:format>image/svg+xml</dc:format>
        <dc:type
           rdf:resource="http://purl.org/dc/dcmitype/StillImage" />
        <dc:title></dc:title>
        <cc:license
           rdf:resource="http://creativecommons.org/licenses/by-sa/4.0/" />
        <dc:creator>
          <cc:Agent>
            <dc:title>Hugh Spiller</dc:title>
          </cc:Agent>
        </dc:creator>
      </cc:Work>
      <cc:License
         rdf:about="http://creativecommons.org/licenses/by-sa/4.0/">
        <cc:permits
           rdf:resource="http://creativecommons.org/ns#Reproduction" />
        <cc:permits
           rdf:resource="http://creativecommons.org/ns#Distribution" />
        <cc:requires
           rdf:resource="http://creativecommons.org/ns#Notice" />
        <cc:requires
           rdf:resource="http://creativecommons.org/ns#Attribution" />
        <cc:permits
           rdf:resource="http://creativecommons.org/ns#DerivativeWorks" />
        <cc:requires
           rdf:resource="http://creativecommons.org/ns#ShareAlike" />
      </cc:License>
    </rdf:RDF>
  </metadata>
  <defs
     id="defs3738" />
  <sodipodi:namedview
     pagecolor="#ffffff"
     bordercolor="#666666"
     borderopacity="1"
     objecttolerance="10"
     gridtolerance="10"
     guidetolerance="10"
     inkscape:pageopacity="0"
     inkscape:pageshadow="2"
     inkscape:window-width="1920"
     inkscape:window-height="1052"
     id="namedview3736"
     showgrid="true"
     inkscape:snap-grids="true"
     inkscape:snap-midpoints="true"
     inkscape:snap-object-midpoints="true"
     inkscape:zoom="2"
     inkscape:cx="115.91115"
     inkscape:cy="-112.70465"
     inkscape:window-x="0"
     inkscape:window-y="0"
     inkscape:window-maximized="1"
     inkscape:current-layer="svg3734"
     showguides="true"
     inkscape:guide-bbox="true"
     inkscape:snap-center="true"
     inkscape:snap-text-baseline="true"
     guidecolor="#00ea00"
     guideopacity="0.49803922"
     units="px">
    <inkscape:grid
       type="xygrid"
       id="grid3785"
       originx="-312.42214"
       originy="-1062.2223" />
    <sodipodi:guide
       position="0.078034766,0.27832464"
       orientation="0,1"
       id="guide4896"
       inkscape:locked="false" />
    <sodipodi:guide
       position="31.328044,125.27842"
       orientation="0,1"
       id="guide4898"
       inkscape:locked="false" />
    <sodipodi:guide
       position="125.0781,-52.384774"
       orientation="1,0"
       id="guide4900"
       inkscape:locked="false" />
    <sodipodi:guide
       position="0.078034766,0.27832464"
       orientation="1,0"
       id="guide4906"
       inkscape:locked="false" />
  </sodipodi:namedview>
  <g
     id="post"
     style="stroke:#000000;stroke-width:6.25000381;stroke-linecap:round;stroke-linejoin:round;stroke-miterlimit:4;stroke-dasharray:none;stroke-opacity:1"
     transform="translate(1.5607495,1.5624466)">
    <path
       sodipodi:nodetypes="cccccccccccc"
       inkscape:connector-curvature="0"
       id="path4908"
       d="m 14.142295,1.5656466 87.500065,1e-5 c 7.07248,0.43063 11.69227,6.22441 12.5,12.5000104 l 6.25,62.50003 c 0.53613,6.24385 1.26858,12.59 -6.25,12.50001 l -15.625015,1e-5 c 0,15.625013 -21.87502,31.250013 -81.25005,31.250013 12.5,1e-5 46.87503,-9.375 46.87503,-31.250013 l -43.75003,-1e-5 C 9.3420153,89.029207 8.8155553,82.678407 7.8922853,76.565697 l -6.25,-62.50004 C 0.92075526,6.2403566 4.9763153,1.4201966 14.142295,1.5656466 Z"
       style="fill:none;stroke:#000000;stroke-width:6.25000381;stroke-linecap:round;stroke-linejoin:round;stroke-miterlimit:4;stroke-dasharray:none;stroke-opacity:1" />
  </g>
  <g
     id="local"
     transform="translate(-374.92219,-428.1212)"
     style="stroke:#000000;stroke-width:6.25000381;stroke-linecap:round;stroke-linejoin:round;stroke-miterlimit:4;stroke-dasharray:none;stroke-opacity:1">
    <path
       sodipodi:nodetypes="cccccc"
       inkscape:connector-curvature="0"
       id="path3837"
       d="m 565.62534,549.99937 v -46.87502 l 31.25002,-15.62501 c 10.49704,5.24852 31.00889,15.38388 31.00889,15.38388 l 0.24112,47.11615 z"
       style="fill:none;stroke:#000000;stroke-width:6.25000381;stroke-linecap:round;stroke-linejoin:round;stroke-miterlimit:4;stroke-dasharray:none;stroke-opacity:1" />
    <path
       inkscape:connector-curvature="0"
       id="path3835"
       d="m 578.12534,515.62435 c 8.33334,0 16.66668,0 25.00002,0 0,6.25 0,12.50001 0,18.75001 -8.33334,0 -16.66668,0 -25.00002,0 0,-6.25 0,-12.50001 0,-18.75001 z"
       style="fill:none;stroke:#000000;stroke-width:6.25000381;stroke-linecap:round;stroke-linejoin:round;stroke-miterlimit:4;stroke-dasharray:none;stroke-opacity:1" />
    <path
       sodipodi:nodetypes="ccccc"
       inkscape:connector-curvature="0"
       id="path3833"
       d="m 637.50038,537.49937 v -96.87506 l 46.87503,15.62501 v 81.25005 z"
       style="fill:none;stroke:#000000;stroke-width:6.25000381;stroke-linecap:round;stroke-linejoin:round;stroke-miterlimit:4;stroke-dasharray:none;stroke-opacity:1" />
    <path
       inkscape:connector-curvature="0"
       id="path3831"
       d="m 650.00039,468.74933 c 6.25,0 12.50001,0 18.75001,0 0,6.25 0,12.50001 0,18.75001 -6.25,0 -12.50001,0 -18.75001,0 0,-6.25 0,-12.50001 0,-18.75001 z"
       style="fill:none;stroke:#000000;stroke-width:6.25000381;stroke-linecap:round;stroke-linejoin:round;stroke-miterlimit:4;stroke-dasharray:none;stroke-opacity:1" />
    <path
       inkscape:connector-curvature="0"
       id="path3829"
       d="m 650.00039,499.99934 c 6.25,0 12.50001,0 18.75001,0 0,6.25 0,12.50001 0,18.75002 -6.25,0 -12.50001,0 -18.75001,0 0,-6.25001 0,-12.50002 0,-18.75002 z"
       style="fill:none;stroke:#000000;stroke-width:6.25000381;stroke-linecap:round;stroke-linejoin:round;stroke-miterlimit:4;stroke-dasharray:none;stroke-opacity:1" />
    <path
       sodipodi:nodetypes="cccccccccc"
       inkscape:connector-curvature="0"
       id="path3827"
       d="M 581.25035,495.31006 V 431.2493 h 78.12504 v 16.67369 l -21.87501,-7.29868 v 78.12505 h -9.37501 l -0.24112,-15.86614 -31.00889,-15.38388 z"
       style="fill:none;stroke:#000000;stroke-width:6.25000381;stroke-linecap:round;stroke-linejoin:round;stroke-miterlimit:4;stroke-dasharray:none;stroke-opacity:1" />
    <path
       sodipodi:nodetypes="ccccc"
       inkscape:connector-curvature="0"
       id="path3825"
       d="m 596.87536,456.24932 h 40.62502 v -9.37501 h -40.62502 z"
       style="fill:none;stroke:#000000;stroke-width:6.25000381;stroke-linecap:round;stroke-linejoin:round;stroke-miterlimit:4;stroke-dasharray:none;stroke-opacity:1" />
    <path
       sodipodi:nodetypes="ccccc"
       inkscape:connector-curvature="0"
       id="path3823"
       d="m 596.87536,481.24933 h 40.62502 v -9.375 h -40.62502 z"
       style="fill:none;stroke:#000000;stroke-width:6.25000381;stroke-linecap:round;stroke-linejoin:round;stroke-miterlimit:4;stroke-dasharray:none;stroke-opacity:1" />
    <path
       sodipodi:nodetypes="cccccc"
       inkscape:connector-curvature="0"
       id="Neighborhood"
       d="m 615.62537,496.87434 h 21.87501 v 9.37501 h -9.37501 l -0.24112,-3.36613 z"
       style="fill:none;stroke:#000000;stroke-width:6.25000381;stroke-linecap:round;stroke-linejoin:round;stroke-miterlimit:4;stroke-dasharray:none;stroke-opacity:1" />
  </g>
  <g
     id="home"
     transform="translate(-343.67216,-428.1212)"
     style="stroke:#000000;stroke-width:6.25000381;stroke-linecap:round;stroke-linejoin:round;stroke-miterlimit:4;stroke-dasharray:none;stroke-opacity:1">
    <path
       id="path3854"
       d="m 721.87543,549.99937 v -78.12504 l 59.37502,-40.62502 59.37505,40.62502 v 78.12504 z"
       style="fill:none;stroke:#000000;stroke-width:6.25000381;stroke-linecap:round;stroke-linejoin:round;stroke-miterlimit:4;stroke-dasharray:none;stroke-opacity:1"
       inkscape:connector-curvature="0" />
    <path
       inkscape:connector-curvature="0"
       id="path3852"
       d="m 734.37544,478.12433 v 21.87501 h 37.50002 v -21.87501 z"
       style="fill:none;stroke:#000000;stroke-width:6.25000381;stroke-linecap:round;stroke-linejoin:round;stroke-miterlimit:4;stroke-dasharray:none;stroke-opacity:1" />
    <path
       inkscape:connector-curvature="0"
       id="Houses-2"
       d="m 734.37544,515.62435 v 21.87502 h 37.50002 v -21.87502 z"
       style="fill:none;stroke:#000000;stroke-width:6.25000381;stroke-linecap:round;stroke-linejoin:round;stroke-miterlimit:4;stroke-dasharray:none;stroke-opacity:1" />
    <path
       inkscape:connector-curvature="0"
       id="path3852-7"
       d="m 790.62547,478.12433 v 21.87501 h 37.50002 v -21.87501 z"
       style="fill:none;stroke:#000000;stroke-width:6.25000381;stroke-linecap:round;stroke-linejoin:round;stroke-miterlimit:4;stroke-dasharray:none;stroke-opacity:1" />
    <path
       inkscape:connector-curvature="0"
       id="path3852-9"
       d="m 790.62547,515.62435 v 21.87501 h 37.50002 v -21.87501 z"
       style="fill:none;stroke:#000000;stroke-width:6.25000381;stroke-linecap:round;stroke-linejoin:round;stroke-miterlimit:4;stroke-dasharray:none;stroke-opacity:1" />
  </g>
  <g
     id="global"
     transform="translate(-309.2972,-415.6212)"
     style="stroke:#000000;stroke-width:6.25000381;stroke-linecap:round;stroke-linejoin:round;stroke-miterlimit:4;stroke-dasharray:none;stroke-opacity:1">
    <path
       sodipodi:nodetypes="ccccccccccccccccccccccccccc"
       inkscape:connector-curvature="0"
       id="path3750"
       d="m 956.25059,506.24935 c -0.14602,11.37475 -2.60214,23.58508 -12.50002,30.61332 m 2.5635,-92.91805 c 17.44708,2.76527 37.14813,10.5195 46.87503,26.11326 m -90.06354,11.19145 c -6.90096,6.38615 -15.07836,12.75171 -25.00001,12.50001 m -2e-5,2.56321 c 11.15338,18.21331 29.23813,32.44594 49.83272,38.13695 4.16519,1.23807 8.40047,1.85766 12.66732,2.67534 m -9.375,-117.73996 c 6.27969,7.5921 12.26198,15.00013 15.62502,24.36443 8.99751,-4.12323 17.74139,-7.72785 27.54237,-9.375 m -11.91738,95.75147 c 2.89506,-8.84788 -2.26412,-16.29679 -6.24999,-23.87643 15.36392,0.22271 28.57891,-9.66373 37.01171,-21.87501 m -90.13674,-3.12501 c -10.64319,0.005 -18.16827,-10.36384 -25.00003,-18.75 m 25.00003,18.75 c 13.49389,15.20873 33.89777,21.0425 53.12503,25.00002 1.69119,-19.66284 1.96176,-40.50896 -7.27276,-58.5351 -2.16635,-7.98233 -10.21858,1.16532 -14.96028,2.75951 -12.51573,7.6743 -23.0621,18.38144 -30.89199,30.77557 z m 90.62504,-3.12497 c 1.462,38.50433 -40.60435,69.45187 -76.92157,56.72313 -37.19203,-9.98938 -54.39205,-59.30368 -31.45782,-90.2488 20.5348,-32.59172 72.72559,-34.43995 95.51441,-3.38246 8.28718,10.38824 12.89808,23.6212 12.86498,36.90813 z"
       style="fill:none;stroke:#000000;stroke-width:6.25000381;stroke-linecap:round;stroke-linejoin:round;stroke-miterlimit:4;stroke-dasharray:none;stroke-opacity:1" />
    <circle
       r="3.1250019"
       cy="443.74933"
       cx="946.87561"
       id="path3754"
       style="fill:none;stroke:#000000;stroke-width:6.25000381;stroke-linecap:round;stroke-linejoin:round;stroke-miterlimit:4;stroke-dasharray:none;stroke-opacity:1" />
    <circle
       r="3.1250019"
       cy="506.24939"
       cx="956.25061"
       id="path3756"
       style="fill:none;stroke:#000000;stroke-width:6.25000381;stroke-linecap:round;stroke-linejoin:round;stroke-miterlimit:4;stroke-dasharray:none;stroke-opacity:1" />
    <circle
       r="3.1250019"
       cy="481.24936"
       cx="903.12555"
       id="path3758"
       style="fill:none;stroke:#000000;stroke-width:6.25000381;stroke-linecap:round;stroke-linejoin:round;stroke-miterlimit:4;stroke-dasharray:none;stroke-opacity:1" />
  </g>
  <g
     id="exit"
     style="stroke:#000000;stroke-width:6.25000381;stroke-linecap:round;stroke-linejoin:round;stroke-miterlimit:4;stroke-dasharray:none;stroke-opacity:1"
     transform="translate(1.5607495,1.5624466)">
    <path
       sodipodi:nodetypes="ccccccccccccccc"
       inkscape:connector-curvature="0"
       id="path4572"
       d="m 826.6428,1.5656566 h -59.3751 c -9.375,0 -15.625,6.25001 -15.625,15.6250104 v 87.500063 c 0,9.375 6.25,15.625 15.625,15.625 23.002,0 37.4016,1e-5 59.3751,0 l 3.125,-31.250013 h -15.625 l -3.125,12.500003 H 770.3927 V 20.315677 h 40.6251 l 3.125,12.49999 h 15.625 z"
       style="fill:none;stroke:#000000;stroke-width:6.25000381;stroke-linecap:round;stroke-linejoin:round;stroke-miterlimit:4;stroke-dasharray:none;stroke-opacity:1" />
    <path
       sodipodi:nodetypes="cccccccc"
       inkscape:connector-curvature="0"
       id="path4574"
       d="m 782.8928,45.315677 h 59.375 l -3.125,-28.12501 31.25,43.75002 -31.25,43.750043 3.125,-28.125033 h -59.375 z"
       style="fill:none;stroke:#000000;stroke-width:6.25000381;stroke-linecap:round;stroke-linejoin:round;stroke-miterlimit:4;stroke-dasharray:none;stroke-opacity:1" />
  </g>
  <g
     id="settings"
     transform="translate(-312.42215,-412.49618)"
     style="stroke:#000000;stroke-width:6.25000381;stroke-linecap:round;stroke-linejoin:round;stroke-miterlimit:4;stroke-dasharray:none;stroke-opacity:1">
    <circle
       r="31.250019"
       cy="474.99933"
       cx="1312.5009"
       id="path4578"
       style="fill:none;stroke:#000000;stroke-width:6.25000381;stroke-linecap:round;stroke-linejoin:round;stroke-miterlimit:4;stroke-dasharray:none;stroke-opacity:1" />
    <circle
       r="46.875027"
       cy="474.99933"
       cx="1312.5009"
       id="path4582"
       style="fill:none;stroke:#000000;stroke-width:6.25000381;stroke-linecap:round;stroke-linejoin:round;stroke-miterlimit:4;stroke-dasharray:none;stroke-opacity:1" />
    <path
       sodipodi:nodetypes="cccc"
       inkscape:connector-curvature="0"
       id="path4584-7"
       d="m 1300.0008,428.1243 3.125,-12.50001 h 18.75 l 3.125,12.50001"
       style="fill:none;stroke:#000000;stroke-width:6.25000381;stroke-linecap:round;stroke-linejoin:round;stroke-miterlimit:4;stroke-dasharray:none;stroke-opacity:1" />
    <path
       inkscape:transform-center-x="40.53825"
       inkscape:transform-center-y="-31.882971"
       sodipodi:nodetypes="cccc"
       inkscape:connector-curvature="0"
       id="path4584-7-9"
       d="m 1268.0813,455.53557 -7.8246,-10.23679 11.6903,-14.65943 11.7214,5.35032"
       style="fill:none;stroke:#000000;stroke-width:6.25000381;stroke-linecap:round;stroke-linejoin:round;stroke-miterlimit:4;stroke-dasharray:none;stroke-opacity:1" />
    <path
       inkscape:transform-center-x="51.417"
       inkscape:transform-center-y="10.424889"
       sodipodi:nodetypes="cccc"
       inkscape:connector-curvature="0"
       id="path4584-7-9-8"
       d="m 1269.6111,497.58188 -12.882,-0.26492 -4.1726,-18.27982 11.4912,-5.82838"
       style="fill:none;stroke:#000000;stroke-width:6.25000381;stroke-linecap:round;stroke-linejoin:round;stroke-miterlimit:4;stroke-dasharray:none;stroke-opacity:1" />
    <path
       inkscape:transform-center-x="21.6287"
       inkscape:transform-center-y="47.160519"
       sodipodi:nodetypes="cccc"
       inkscape:connector-curvature="0"
       id="path4584-7-9-3"
       d="m 1303.4382,522.60102 -8.2388,9.90644 -16.8934,-8.13488 2.6077,-12.61814"
       style="fill:none;stroke:#000000;stroke-width:6.25000381;stroke-linecap:round;stroke-linejoin:round;stroke-miterlimit:4;stroke-dasharray:none;stroke-opacity:1" />
    <path
       inkscape:transform-center-x="-21.6312"
       inkscape:transform-center-y="47.159279"
       sodipodi:nodetypes="cccc"
       inkscape:connector-curvature="0"
       id="path4584-7-9-5"
       d="m 1344.0897,511.75281 2.6085,12.6179 -16.8929,8.1359 -8.2395,-9.906"
       style="fill:none;stroke:#000000;stroke-width:6.25000381;stroke-linecap:round;stroke-linejoin:round;stroke-miterlimit:4;stroke-dasharray:none;stroke-opacity:1" />
    <path
       inkscape:transform-center-x="-51.4177"
       inkscape:transform-center-y="10.422594"
       sodipodi:nodetypes="cccc"
       inkscape:connector-curvature="0"
       id="path4584-7-9-4"
       d="m 1360.9538,473.20631 11.4915,5.82764 -4.1716,18.28008 -12.882,0.26571"
       style="fill:none;stroke:#000000;stroke-width:6.25000381;stroke-linecap:round;stroke-linejoin:round;stroke-miterlimit:4;stroke-dasharray:none;stroke-opacity:1" />
    <path
       inkscape:transform-center-x="-40.53645"
       inkscape:transform-center-y="-31.885176"
       sodipodi:nodetypes="cccc"
       inkscape:connector-curvature="0"
       id="path4584-7-9-85"
       d="m 1341.3312,435.98822 11.721,-5.35103 11.6911,14.65885 -7.8239,10.23728"
       style="fill:none;stroke:#000000;stroke-width:6.25000381;stroke-linecap:round;stroke-linejoin:round;stroke-miterlimit:4;stroke-dasharray:none;stroke-opacity:1" />
  </g>
  <g
     id="search"
     style="stroke:#000000;stroke-width:6.25000381;stroke-linecap:round;stroke-linejoin:round;stroke-miterlimit:4;stroke-dasharray:none;stroke-opacity:1"
     transform="translate(1.5607495,1.5624466)">
    <circle
       r="31.250019"
       cy="48.440697"
       cx="1173.5179"
       id="path4578-3-3"
       style="fill:none;stroke:#000000;stroke-width:6.25000381;stroke-linecap:round;stroke-linejoin:round;stroke-miterlimit:4;stroke-dasharray:none;stroke-opacity:1" />
    <path
       inkscape:connector-curvature="0"
       id="path4582-9-6"
       d="m 1220.393,48.440697 a 46.875027,46.875027 0 0 1 -46.875,46.87503 46.875027,46.875027 0 0 1 -46.8751,-46.87503 46.875027,46.875027 0 0 1 46.8751,-46.8750304 46.875027,46.875027 0 0 1 46.875,46.8750304 z"
       style="fill:none;stroke:#000000;stroke-width:6.25000381;stroke-linecap:round;stroke-linejoin:round;stroke-miterlimit:4;stroke-dasharray:none;stroke-opacity:1" />
    <path
       sodipodi:nodetypes="cccc"
       inkscape:connector-curvature="0"
       id="path3805"
       d="m 1198.518,89.065711 25,31.250019 c 10.8473,0.8127 16.8571,-3.53988 15.625,-15.625 l -28.125,-26.074251"
       style="fill:none;stroke:#000000;stroke-width:6.25000381;stroke-linecap:round;stroke-linejoin:round;stroke-miterlimit:4;stroke-dasharray:none;stroke-opacity:1" />
  </g>
</svg>
