<?xml version="1.0" encoding="UTF-8" standalone="no"?>
<!DOCTYPE svg PUBLIC "-//W3C//DTD SVG 20010904//EN"
              "http://www.w3.org/TR/2001/REC-SVG-20010904/DTD/svg10.dtd">

<svg xmlns="http://www.w3.org/2000/svg"
     viewBox="0 0 533 621">
  <path id="plume-logo-fill"
        fill="#7765e3"
        d="M 175.67,341.67
           C 142,472 246,608 246,608
             246,608 11,418 12,251
             9,129 93,12.50 245,10
             371,9 518,78 521,184
             524,290 448,376 290,374
             228,370.33 209.85,360.94 175.67,341.67 Z"/>
  <path id="plume-logo"
        fill="#6457a6" 
        d="M 173.18,350.45
           C 151.18,485.45 246,608 246,608
             246,608 11,418 12,251
             9,129 93,12.50 245,10
             371,9 518,78 521,184
             524,290 448,376 290,374
             149,372.50 127.75,288.50 127.50,240.50
             127,197.25 158,144 212,143
             275,142.33 329,165 329,201
             329,230 310,244 310,244
             304.57,247.08 275.12,242.37 276,214
             316.29,186.65 265.50,147.25 213,148
             160.50,148.75 143.50,210.50 144,236
             144.50,261.50 166.50,323 300,323
             433.50,323 495,269 497,188
             493,49 294,14 251,16
             106,17 32,120 29,252
             31.67,324.67 85,409 171,493
             143,415 171.60,346.62 173.18,350.45 Z" />
</svg>
